<?xml version="1.0" standalone="no"?>
<!DOCTYPE svg PUBLIC "-//W3C//DTD SVG 20010904//EN"
 "http://www.w3.org/TR/2001/REC-SVG-20010904/DTD/svg10.dtd">
<svg version="1.0" xmlns="http://www.w3.org/2000/svg"
 width="1500.000000pt" height="500.000000pt" viewBox="0 0 1500.000000 500.000000"
 preserveAspectRatio="xMidYMid meet">

<g transform="translate(0.000000,500.000000) scale(0.100000,-0.100000)"
fill="#000000" stroke="none">
<path d="M0 3755 c0 -816 3 -1245 10 -1245 5 0 15 9 22 20 17 27 64 27 71 0 7
-26 27 -26 34 0 5 21 23 28 23 10 0 -7 6 -7 20 0 14 7 26 8 39 0 14 -7 22 -7
26 1 4 6 -2 13 -14 16 -12 3 -21 9 -21 14 0 5 -10 9 -23 9 -28 0 -71 29 -47
31 8 0 27 0 42 -1 15 -1 33 2 40 7 7 4 32 8 55 8 46 1 57 -10 62 -62 0 -7 5
-13 10 -13 5 0 7 9 4 20 -11 41 9 48 145 45 71 -1 134 -5 139 -8 6 -4 24 -3
38 3 43 16 169 24 191 12 16 -8 301 -19 382 -13 23 1 27 8 14 29 -9 13 -69 26
-112 23 -75 -4 -84 -3 -101 18 -21 26 -25 26 -32 0 -3 -12 -10 -18 -16 -15 -5
3 -27 8 -48 10 -21 2 -46 7 -56 11 -12 5 -17 2 -17 -9 0 -25 -113 -23 -139 3
-11 11 -17 22 -13 25 3 3 38 6 78 6 40 0 74 4 76 8 2 4 18 19 37 32 23 16 36
20 39 12 2 -7 21 -12 42 -12 21 0 40 -5 42 -12 3 -8 16 -4 38 12 31 22 50 26
138 29 7 1 17 13 23 29 l11 27 17 -22 c13 -15 28 -21 52 -20 19 1 36 4 39 7 3
3 20 17 39 30 23 16 36 20 39 12 2 -7 21 -12 43 -12 34 0 39 3 40 23 1 24 4
18 13 -26 8 -34 21 -28 31 15 l7 33 12 -37 c12 -40 24 -40 45 0 12 23 13 23
32 6 17 -16 19 -16 19 -1 0 13 9 17 40 17 22 0 40 5 40 10 0 6 -33 10 -80 10
-47 0 -80 4 -80 10 0 6 18 10 40 10 22 0 40 5 40 10 0 6 33 10 80 10 44 0 80
4 80 8 0 5 24 8 52 6 29 -1 58 2 64 7 8 6 13 3 17 -12 4 -15 11 -20 22 -15 9
3 32 6 51 6 26 0 34 4 34 18 1 16 1 16 11 0 15 -27 39 -22 39 7 0 16 6 25 15
25 8 0 15 -4 15 -10 0 -17 27 -11 35 8 6 16 7 16 19 0 7 -10 20 -18 29 -18 8
0 18 -8 20 -17 4 -17 5 -17 6 -1 1 23 51 48 94 48 29 0 36 -4 41 -25 7 -28 39
-34 53 -11 6 10 21 12 61 6 42 -5 52 -4 48 7 -3 8 2 13 14 13 11 0 20 -4 20
-8 0 -4 9 -8 20 -8 11 0 20 4 20 8 0 4 18 8 40 8 30 0 38 -3 34 -14 -4 -11 0
-13 15 -9 17 4 21 13 21 44 l0 39 44 0 c26 0 48 -6 56 -15 7 -8 20 -15 30 -15
10 0 23 7 30 15 7 8 21 15 31 15 11 0 19 -7 19 -15 0 -19 14 -19 30 0 18 22
50 19 50 -5 0 -17 7 -20 40 -20 22 0 40 -5 40 -11 0 -13 40 -6 120 21 33 11
99 21 167 24 136 8 173 14 173 32 0 8 5 14 11 14 6 0 9 -9 6 -20 -5 -18 -1
-20 31 -17 21 1 42 6 47 9 16 10 89 13 103 4 7 -4 15 -1 18 9 4 10 14 15 25
12 12 -3 19 2 23 20 4 14 11 21 18 17 6 -4 9 -1 6 7 -6 15 -61 14 -66 -2 -4
-11 -32 -12 -32 -1 0 4 -37 8 -82 9 -45 2 -84 7 -88 13 -3 5 -26 11 -50 12
-27 2 -52 10 -64 22 -16 16 -29 18 -87 14 -51 -4 -74 -1 -90 10 -16 11 -23 12
-28 3 -6 -9 -15 -8 -35 3 -17 9 -49 12 -89 10 -34 -2 -67 2 -74 8 -7 5 -19 8
-27 5 -8 -3 -17 -1 -20 6 -2 7 -5 4 -5 -5 -1 -19 -16 -24 -26 -8 -3 5 -33 8
-65 6 -33 -1 -61 1 -62 5 -2 4 -23 2 -47 -4 -41 -11 -44 -10 -65 14 -16 20
-26 25 -41 19 -11 -5 -30 -6 -43 -3 -13 3 -38 -3 -57 -13 -31 -16 -39 -17 -72
-5 -34 13 -38 12 -54 -8 -9 -11 -25 -21 -36 -21 -17 1 -17 1 0 14 31 24 21 46
-20 47 -21 0 -46 2 -55 4 -10 2 -18 -1 -18 -6 0 -19 -46 -8 -55 14 -7 15 -17
21 -35 19 -82 -8 -226 3 -278 21 -31 11 -36 10 -53 -11 -20 -25 -10 -26 -182
6 -35 7 -52 5 -65 -4 -9 -7 -25 -14 -34 -14 -27 0 -29 -16 -5 -41 26 -28 90
-54 95 -39 5 13 59 13 67 0 3 -5 -3 -10 -14 -10 -12 0 -21 -4 -21 -8 0 -12
-142 -12 -167 0 -13 6 -23 20 -23 30 0 11 4 17 8 14 4 -2 9 7 10 21 1 19 -1
23 -11 15 -13 -10 -108 -31 -172 -37 -47 -4 -78 19 -95 70 -11 32 -11 32 -78
31 -37 -1 -72 -4 -78 -8 -20 -13 -223 20 -261 42 -10 5 -40 14 -68 18 -44 7
-50 11 -48 30 2 16 -6 28 -28 41 -24 15 -27 20 -14 25 9 3 13 2 10 -4 -3 -6
-1 -10 4 -10 6 0 11 6 11 13 0 8 4 7 10 -3 8 -12 10 -9 10 12 0 14 -4 28 -10
30 -6 2 -7 28 -2 68 8 75 26 87 67 46 30 -30 35 -32 35 -11 0 8 5 15 10 15 6
0 10 -7 10 -15 0 -8 9 -19 20 -25 14 -8 20 -8 20 0 0 6 7 4 16 -5 47 -47 174
-58 174 -15 0 10 7 20 15 24 8 3 15 12 15 21 0 8 5 15 10 15 6 0 10 -9 10 -20
0 -30 35 -44 63 -26 26 17 68 10 143 -24 66 -30 79 -32 400 -43 22 0 30 -5 27
-14 -4 -9 0 -11 12 -7 9 4 21 17 26 30 9 25 33 32 44 14 3 -5 19 -10 34 -10
16 0 35 -7 42 -16 10 -12 23 -14 51 -10 33 5 38 4 38 -14 0 -12 5 -17 14 -14
7 3 20 -2 29 -11 27 -26 101 -53 138 -49 56 6 79 14 79 27 1 28 16 38 44 27
23 -8 25 -13 16 -29 -17 -33 -12 -36 63 -35 101 1 102 1 88 18 -8 10 -9 16 -1
21 10 6 22 4 90 -11 14 -3 77 -8 140 -10 135 -4 248 -21 271 -40 8 -8 22 -14
30 -14 8 0 25 -7 37 -15 12 -9 42 -17 67 -18 28 -1 45 -7 45 -14 0 -17 29 -16
82 1 69 22 87 25 212 31 94 5 128 3 155 -8 89 -37 142 -49 241 -53 58 -2 116
-7 130 -10 51 -14 129 -13 141 2 6 8 15 14 20 14 14 0 11 -28 -4 -33 -6 -2 7
-4 30 -3 25 0 45 6 48 14 3 8 0 11 -8 7 -6 -4 -3 0 8 9 11 8 26 20 33 26 9 8
14 6 20 -11 7 -19 10 -20 15 -6 7 18 47 24 47 6 0 -5 5 -7 10 -4 6 3 10 2 10
-4 0 -16 36 -32 83 -37 64 -7 113 -23 126 -38 7 -8 30 -17 52 -21 24 -4 39
-12 39 -21 0 -17 14 -17 60 -1 33 12 35 12 36 -10 1 -13 -2 -20 -7 -17 -5 3
-9 0 -9 -5 0 -15 27 -14 34 2 3 8 12 3 26 -16 22 -27 55 -36 62 -16 6 17 38
-2 38 -23 0 -13 6 -18 18 -16 9 2 17 11 17 20 0 29 18 36 73 31 44 -5 52 -9
52 -26 0 -18 5 -19 58 -14 31 3 67 9 80 13 19 5 22 3 22 -21 0 -22 3 -26 18
-20 39 15 73 17 101 6 25 -11 31 -10 55 12 26 24 76 42 76 26 0 -15 62 -22 71
-8 6 11 9 10 15 -4 6 -17 7 -17 19 0 10 14 16 15 28 5 12 -10 18 -10 30 3 21
21 36 19 58 -6 l19 -22 25 27 c16 17 32 26 41 22 9 -3 31 -6 50 -6 21 0 33 -4
29 -10 -3 -5 4 -10 16 -10 16 0 20 5 16 20 -7 28 7 34 91 34 55 1 81 -4 101
-16 32 -22 41 -22 41 -3 0 17 35 21 45 5 4 -6 10 -8 15 -5 5 3 11 -4 15 -15
10 -30 18 -25 42 28 l23 47 0 -37 c0 -38 0 -38 40 -38 22 0 40 -4 40 -10 0
-20 18 -9 24 14 5 19 11 22 31 18 15 -2 25 0 25 7 0 13 45 15 68 2 25 -13 81
-20 87 -11 3 5 -4 12 -16 15 -17 6 -19 9 -8 16 19 12 42 11 34 -1 -3 -5 1 -20
9 -32 9 -12 16 -17 16 -10 0 7 4 11 9 7 5 -3 12 -1 16 5 11 17 44 11 55 -10
13 -25 40 -26 41 -2 0 10 3 12 6 5 6 -15 83 -18 83 -3 0 13 71 13 90 -1 11 -8
12 -12 3 -16 -7 -2 -13 -9 -13 -15 0 -6 22 -8 58 -4 31 3 66 5 77 5 31 0 38 0
68 5 15 2 27 0 27 -5 0 -5 27 -9 60 -9 33 0 60 4 60 9 0 6 -24 7 -57 4 l-57
-6 23 24 c20 21 24 22 34 8 9 -11 24 -14 55 -11 23 2 48 -1 56 -7 11 -9 15 -7
19 9 3 11 10 20 17 20 7 0 14 -9 17 -20 4 -14 9 -17 17 -11 6 5 46 12 89 16
l77 7 0 -26 c0 -30 7 -33 26 -8 12 15 15 15 27 2 10 -12 36 -14 140 -12 110 3
127 1 127 -12 0 -14 18 -16 119 -16 l120 0 4 33 4 32 1 -37 c3 -49 20 -57 34
-17 l11 33 11 -32 11 -32 40 20 c23 12 41 16 43 10 2 -5 21 -10 42 -10 21 0
42 -4 45 -10 3 -5 13 -10 21 -10 12 0 14 7 9 30 -4 19 -3 30 4 30 6 0 11 -7
11 -16 0 -13 7 -15 34 -11 22 3 37 1 40 -6 2 -7 8 -2 11 11 9 27 25 29 25 2 0
-27 11 -25 44 5 15 14 31 23 36 20 5 -3 22 2 37 12 28 19 39 19 433 26 69 2
130 6 137 10 6 4 14 3 18 -3 4 -6 10 -8 15 -5 5 3 20 -1 32 -9 21 -13 28 -13
68 3 100 40 141 51 158 41 28 -16 111 -40 136 -40 18 0 27 -8 35 -30 5 -16 15
-30 20 -30 6 0 11 -11 11 -25 0 -23 -14 -35 -22 -17 -1 4 -29 6 -61 4 -52 -4
-58 -6 -54 -23 4 -15 0 -19 -20 -19 -13 0 -31 7 -40 15 -8 9 -18 13 -22 9 -3
-4 0 -9 7 -11 6 -3 12 -9 12 -14 0 -6 -5 -7 -10 -4 -5 3 -10 -1 -10 -9 0 -9
-3 -16 -8 -16 -8 0 -14 -9 -57 -95 -29 -59 -30 -63 -30 -215 0 -177 14 -235
68 -288 47 -45 98 -63 182 -63 119 0 183 38 227 135 21 47 23 65 23 211 0 146
-2 165 -23 212 -25 55 -50 82 -97 108 l-30 16 40 -7 c22 -3 44 -10 49 -15 6
-5 38 -9 73 -9 l63 0 0 30 c0 24 4 30 21 30 18 0 20 4 15 25 -4 14 -2 25 3 25
6 0 18 13 27 29 30 50 99 67 137 34 11 -10 35 -18 56 -18 32 0 36 -3 39 -27 3
-28 -12 -39 -21 -15 -2 7 -10 0 -17 -16 -9 -17 -16 -23 -20 -16 -5 7 -19 9
-39 4 -25 -5 -31 -12 -32 -33 -1 -17 -3 -21 -6 -9 -3 10 -14 17 -29 17 -13 0
-33 5 -44 12 -10 7 -23 8 -27 4 -4 -5 -2 -11 5 -13 7 -3 12 -22 12 -44 0 -35
3 -39 25 -39 l25 0 0 -310 0 -310 75 0 75 0 0 115 0 115 33 0 c32 0 33 -1 76
-115 l44 -115 79 0 c60 0 79 3 75 13 -3 6 -26 63 -51 124 l-46 113 40 36 c23
21 44 51 50 72 13 47 13 153 0 187 -6 15 -7 37 -4 51 8 30 40 32 47 2 4 -12 9
-19 13 -15 4 4 13 2 20 -4 11 -9 15 -7 19 5 3 9 7 23 10 32 7 22 29 12 33 -14
2 -14 11 -22 23 -22 12 0 19 -7 19 -20 0 -18 7 -20 75 -20 l75 0 0 -270 0
-270 75 0 75 0 0 270 0 270 70 0 c70 0 70 0 70 -27 1 -27 1 -27 16 -8 8 11 13
28 10 38 -3 13 2 17 25 17 16 0 29 5 29 11 0 5 5 7 10 4 6 -3 10 -17 10 -31 0
-17 5 -24 20 -24 15 0 20 7 20 24 0 14 5 28 10 31 6 3 10 -3 10 -14 0 -14 6
-21 20 -21 20 0 20 -7 20 -270 l0 -270 70 0 70 0 0 140 0 140 113 -3 112 -2 3
63 3 62 -116 0 -115 0 0 64 0 64 66 7 c60 7 67 6 80 -14 19 -27 50 -27 66 -1
15 23 28 26 28 6 0 -11 19 -17 70 -22 59 -6 70 -9 70 -25 0 -25 28 -24 48 2
16 19 17 12 14 -114 -6 -218 24 -304 124 -353 101 -49 249 -29 316 42 46 50
60 105 66 257 l4 137 34 0 c24 0 34 -5 34 -15 0 -11 11 -15 40 -15 22 0 40 -4
40 -10 0 -18 22 -10 27 10 16 60 23 -3 23 -200 l0 -220 200 0 200 0 0 60 c0
41 -4 60 -12 61 -7 0 -46 0 -85 -1 -77 -1 -79 0 -75 53 1 10 -5 17 -15 17 -19
0 -42 -28 -43 -52 0 -10 -5 -18 -11 -18 -7 0 -10 47 -8 140 l2 140 61 0 c43 0
57 -3 46 -10 -11 -7 -7 -10 17 -10 30 0 32 2 36 43 l4 42 1 -42 c2 -36 5 -43
22 -43 12 0 25 -10 30 -22 l9 -23 7 23 c10 35 32 26 39 -17 5 -33 10 -39 33
-39 15 0 35 4 45 10 15 8 17 6 11 -16 -5 -23 -3 -26 21 -26 27 0 28 0 10 20
-18 20 -17 20 8 20 l27 0 0 -95 c0 -76 -3 -95 -14 -95 -21 0 -31 21 -15 31 8
5 9 9 4 9 -6 0 -16 -5 -22 -11 -13 -13 -36 -3 -28 12 4 5 -4 9 -16 9 l-22 0
21 -23 c12 -13 22 -29 22 -35 0 -7 15 -12 35 -12 l35 0 0 -49 c0 -39 -4 -51
-17 -54 -10 -2 -5 -3 11 -1 16 2 57 4 92 4 l64 0 0 35 c0 19 5 35 10 35 6 0
10 7 10 15 0 8 -4 15 -10 15 -5 0 -10 12 -10 26 0 23 3 25 33 22 26 -2 32 0
32 17 0 11 -10 24 -22 30 -13 5 -23 15 -23 22 0 7 -4 13 -10 13 -5 0 -10 11
-10 25 0 14 5 25 10 25 6 0 10 7 10 16 0 8 -4 12 -10 9 -5 -3 -10 -1 -10 5 0
7 6 10 13 8 7 -3 13 -26 15 -56 2 -35 7 -52 16 -52 10 0 12 12 8 45 -4 37 -2
45 12 45 11 0 16 -9 16 -32 0 -18 5 -40 10 -48 8 -13 10 -13 10 2 0 9 8 22 18
27 14 9 14 12 4 19 -11 8 -11 10 2 15 9 4 23 4 32 0 13 -5 13 -7 2 -14 -11 -7
-10 -11 2 -19 8 -5 20 -8 27 -6 13 5 23 -15 23 -47 1 -20 13 -58 35 -109 6
-14 2 -18 -16 -18 -22 -1 -22 -2 -6 -11 10 -6 25 -8 32 -5 8 3 21 -4 29 -16
35 -50 207 -69 293 -33 18 8 33 10 33 4 0 -12 37 -12 45 1 4 6 11 8 16 4 5 -3
28 -3 50 1 39 7 41 9 35 36 -3 16 -1 29 4 29 25 0 6 18 -31 29 -30 9 -39 16
-35 27 3 9 6 19 6 24 0 4 19 10 43 13 23 3 60 10 82 17 46 14 56 14 110 6 22
-4 49 -6 60 -5 80 4 137 -2 151 -16 8 -8 20 -15 25 -15 5 0 9 -6 9 -14 0 -15
-43 -25 -145 -33 -38 -3 -78 -9 -87 -14 -12 -6 -18 -6 -18 1 0 5 -7 10 -15 10
-10 0 -15 -10 -15 -28 0 -27 2 -29 40 -27 37 2 40 0 40 -25 0 -26 3 -28 57
-33 31 -3 63 -13 72 -21 14 -15 11 -16 -26 -16 -23 0 -45 5 -49 11 -3 6 -17 8
-30 5 -16 -4 -24 -2 -25 6 0 7 -4 2 -10 -10 -16 -41 -4 -45 116 -39 76 3 145
0 211 -10 55 -8 113 -15 130 -16 26 0 30 -3 19 -14 -17 -16 -42 -17 -48 0 -2
6 -8 9 -12 5 -4 -4 -5 -14 -1 -23 4 -11 17 -15 46 -13 40 2 59 -6 46 -19 -3
-4 -23 -6 -44 -5 -20 1 -44 -2 -52 -7 -12 -8 -11 -14 10 -35 l23 -26 -41 0
c-33 0 -42 -4 -42 -17 -1 -17 -1 -17 -14 -1 -13 18 -36 24 -36 11 0 -16 -47
-30 -70 -21 -33 12 -65 6 -65 -12 0 -8 -8 -16 -17 -18 -13 -2 -16 1 -12 12 5
13 -2 16 -35 16 -33 0 -43 -4 -49 -21 -7 -18 -10 -19 -23 -7 -8 7 -33 15 -56
17 -34 2 -43 -1 -43 -14 0 -16 -29 -16 -122 1 -17 4 -29 0 -35 -10 -13 -24
-97 -6 -132 28 -22 22 -43 29 -97 36 -142 17 -181 16 -204 -5 -11 -10 -38 -19
-60 -21 -46 -3 -60 -10 -60 -29 0 -26 -130 -42 -165 -21 -33 21 -72 27 -102
15 -56 -22 -125 -27 -165 -13 -35 12 -40 12 -55 -5 -14 -17 -20 -18 -58 -6
-28 8 -48 9 -59 3 -10 -5 -23 -7 -30 -5 -16 6 -107 -12 -122 -24 -7 -6 -30 -5
-59 1 -31 7 -51 7 -59 1 -7 -6 -17 -6 -26 -1 -8 6 -28 10 -45 10 -16 0 -36 4
-42 8 -7 5 -52 2 -100 -5 -87 -13 -123 -10 -123 8 0 17 -37 9 -55 -11 -20 -22
-74 -27 -93 -8 -7 7 -53 14 -114 16 -85 4 -102 2 -110 -12 -10 -18 -43 -22
-53 -6 -3 6 -21 10 -40 10 -19 0 -37 5 -40 10 -8 12 -55 13 -55 1 0 -4 -31
-12 -69 -18 -54 -7 -71 -6 -77 4 -11 17 -79 20 -123 5 -30 -10 -34 -9 -38 8
-7 25 -33 25 -83 0 -51 -26 -134 -31 -554 -34 l-340 -3 -41 -46 c-23 -26 -44
-47 -48 -47 -3 0 -6 45 -5 100 1 55 -2 103 -5 107 -4 3 -13 0 -22 -7 -11 -9
-15 -33 -15 -96 0 -46 -2 -84 -5 -84 -2 0 -25 22 -50 49 l-47 50 -91 -5 c-51
-3 -130 -6 -177 -9 -47 -2 -116 -8 -155 -14 -38 -6 -113 -10 -165 -10 -144 0
-144 0 -305 -4 -99 -2 -167 1 -201 9 -28 7 -77 14 -110 15 -32 1 -84 9 -114
16 -41 11 -88 13 -190 9 -197 -9 -223 -13 -262 -36 -30 -17 -48 -20 -113 -16
-48 2 -80 9 -85 16 -7 11 -15 10 -42 -1 -27 -11 -130 -13 -558 -12 -289 1
-556 5 -595 10 -74 9 -198 6 -191 -5 8 -13 -1130 -1 -1209 13 -55 10 -219 18
-270 14 -11 -1 -25 -6 -31 -10 -6 -5 -80 -7 -165 -6 -85 2 -226 0 -314 -4 -88
-4 -194 -3 -235 2 -41 6 -127 9 -190 8 -212 -4 -1132 6 -1550 16 -107 3 -343
7 -525 10 -379 6 -647 13 -755 21 -41 3 -132 5 -201 4 -105 0 -128 2 -132 15
-7 17 -37 21 -37 3 0 -14 -110 -9 -670 32 -74 5 -260 9 -412 10 l-278 0 0
-1045 0 -1045 7500 0 7500 0 0 1100 0 1100 -44 0 c-25 0 -48 4 -51 10 -4 6 4
9 17 7 14 -1 22 3 21 10 -2 7 2 13 7 13 6 0 10 -7 10 -15 0 -8 9 -15 20 -15
19 0 20 7 20 225 l0 226 -52 -6 c-29 -4 -70 -13 -90 -21 -28 -10 -68 -12 -167
-7 l-131 6 0 27 c0 35 37 54 107 55 28 1 58 7 67 14 19 16 86 17 114 2 16 -8
38 -8 87 1 l65 13 0 1127 0 1128 -7500 0 -7500 0 0 -1245z m8485 614 c4 -6 14
-8 22 -4 29 11 51 -4 45 -30 -6 -33 -31 -39 -86 -20 -26 9 -56 13 -68 9 -19
-6 -20 -5 -8 8 8 7 31 15 49 16 42 3 51 10 31 22 -9 6 -10 10 -3 10 6 0 15 -5
18 -11z m-110 -9 c3 -5 -1 -10 -10 -10 -9 0 -13 5 -10 10 3 6 8 10 10 10 2 0
7 -4 10 -10z m-7815 -514 c0 -13 -6 -26 -12 -29 -7 -2 -10 -7 -6 -11 3 -4 16
-3 28 4 23 12 56 5 79 -17 9 -9 25 -13 42 -9 29 6 81 -25 66 -40 -12 -12 -111
-8 -115 5 -2 6 -12 11 -22 11 -10 0 -26 10 -35 23 -12 15 -19 18 -22 10 -3 -7
-14 -13 -25 -13 -16 0 -19 5 -14 23 4 16 -1 26 -15 35 -26 16 -15 32 22 32 24
0 29 -4 29 -24z m8080 14 c0 -5 -7 -10 -15 -10 -9 0 -18 -7 -21 -15 -4 -8 -15
-15 -25 -15 -10 0 -19 -6 -19 -13 0 -8 -11 -19 -25 -25 -14 -6 -25 -18 -25
-27 0 -10 -10 -15 -27 -15 -19 0 -24 -3 -15 -9 11 -7 10 -10 -3 -15 -9 -3 -28
-6 -41 -6 -15 0 -24 -6 -24 -15 0 -21 -66 -20 -78 1 -7 13 -11 14 -17 4 -8
-13 43 -60 79 -72 21 -6 21 -6 0 -7 -27 -1 -91 -28 -99 -41 -3 -5 -16 -10 -28
-10 -13 0 -30 -9 -40 -20 -16 -19 -26 -20 -90 -15 -99 7 -180 19 -194 28 -24
15 -13 40 34 84 54 49 140 81 172 63 31 -16 65 -12 89 11 12 11 27 17 32 14 5
-3 17 6 26 20 9 14 23 25 32 25 8 0 25 11 38 25 13 14 32 25 42 25 11 0 22 6
25 14 7 17 36 23 140 25 45 0 77 -3 77 -9z m2030 -26 c0 -9 -9 -18 -19 -21
-12 -3 -17 -11 -14 -19 3 -8 1 -14 -5 -14 -16 0 -20 23 -9 48 12 25 47 30 47
6z m1574 -110 c31 -12 16 -24 -29 -24 -25 0 -45 4 -45 9 0 17 45 26 74 15z
m-311 -47 c14 -9 35 -17 47 -17 25 0 25 -4 -5 -120 -14 -52 -25 -99 -25 -103
0 -4 35 -7 78 -5 l77 3 14 68 14 68 81 -3 80 -3 14 -67 15 -68 77 0 77 0 -10
46 c-13 56 -1 67 62 58 58 -8 71 -13 71 -30 0 -17 1 -17 34 -4 25 9 26 8 26
-30 l0 -40 75 0 75 0 0 29 c0 28 2 29 30 21 17 -5 37 -16 46 -24 8 -9 19 -16
24 -16 5 0 12 -10 16 -22 10 -34 -58 -91 -102 -85 -23 3 -36 -1 -48 -15 -15
-17 -29 -19 -114 -18 -110 2 -243 -12 -286 -29 -15 -6 -60 -13 -100 -16 -39
-3 -111 -8 -161 -11 -49 -4 -115 -7 -145 -8 -30 -1 -60 -5 -67 -9 -7 -4 -23
-1 -36 8 -13 8 -27 12 -31 8 -3 -4 -13 3 -22 15 -18 26 -27 27 -48 6 -9 -8
-16 -11 -16 -5 0 5 -15 10 -32 10 -18 0 -70 1 -115 3 -46 2 -83 0 -83 -4 0 -5
-11 -8 -25 -8 -14 0 -30 -9 -37 -20 -8 -13 -24 -20 -43 -20 -17 0 -37 -6 -44
-12 -10 -11 -12 -8 -8 12 2 14 2 19 0 12 -3 -9 -13 -12 -26 -8 -12 3 -30 6
-41 6 -14 0 -17 5 -12 24 8 32 -2 38 -30 20 -21 -14 -25 -14 -39 -1 -8 8 -20
17 -27 20 -21 7 44 57 74 57 38 0 68 13 108 49 19 17 43 31 53 31 12 0 17 8
17 29 0 24 5 29 32 35 56 11 83 56 34 56 -33 0 -56 10 -56 24 0 6 14 25 31 41
26 26 38 30 85 30 l54 0 0 -107 0 -108 75 0 75 0 0 120 0 121 29 12 c41 17
103 15 134 -6z m-3253 -6 c14 -28 13 -31 -14 -31 -14 0 -28 -4 -31 -10 -9 -14
-68 -13 -83 2 -22 22 -13 38 21 38 17 0 39 5 47 10 24 15 48 12 60 -9z m-7884
-18 c-10 -10 -19 5 -10 18 6 11 8 11 12 0 2 -7 1 -15 -2 -18z m-51 -9 c13 -5
14 -8 3 -15 -19 -13 -28 -11 -28 6 0 17 2 18 25 9z m35 -86 c0 -15 -4 -17 -17
-10 -10 5 -28 8 -40 6 -13 -2 -23 0 -23 4 0 14 7 17 44 18 29 0 36 -3 36 -18z
m6740 0 c0 -4 -2 -8 -4 -8 -2 0 -12 -3 -20 -6 -11 -4 -15 -2 -11 8 6 15 35 21
35 6z m11 -38 c20 11 25 10 41 -10 10 -12 15 -26 12 -32 -3 -5 0 -23 6 -39 12
-28 14 -29 35 -15 19 13 24 13 28 2 7 -19 -1 -26 -30 -26 -20 0 -22 -3 -15
-17 18 -32 -13 -47 -110 -51 -73 -4 -97 -1 -129 14 -21 11 -39 23 -39 27 0 4
-9 17 -20 29 -27 29 -25 38 5 38 31 0 43 24 24 47 -12 14 -11 15 9 9 17 -6 27
-3 36 9 11 16 17 16 51 5 34 -11 40 -11 49 3 7 10 13 12 17 6 4 -8 14 -7 30 1z
m-267 -55 c-4 -8 -1 -22 6 -30 10 -12 10 -15 0 -15 -8 0 -10 -8 -6 -25 6 -23
4 -25 -26 -25 -25 0 -29 3 -20 12 7 7 12 23 12 36 0 27 17 62 30 62 5 0 7 -7
4 -15z m-6639 -51 c0 -15 -6 -18 -29 -16 -25 3 -56 22 -56 34 0 2 19 4 43 3
35 -1 42 -4 42 -21z m175 15 c0 -5 -18 -9 -40 -9 -29 0 -40 -4 -40 -15 0 -11
12 -15 43 -16 42 -1 41 -2 -12 -9 -30 -5 -60 -6 -67 -3 -21 8 -21 37 0 48 25
13 116 16 116 4z m5074 -49 c16 -15 -150 -33 -176 -19 -11 6 -18 6 -18 0 0 -5
-9 -7 -20 -4 -23 6 -25 14 -7 32 9 9 37 11 112 6 55 -4 104 -11 109 -15z
m1332 -18 c9 -5 10 -12 4 -22 -9 -13 -11 -13 -20 0 -5 8 -10 10 -10 4 0 -7
-10 -15 -22 -19 -34 -11 -38 -12 -40 -15 -2 -1 -20 -3 -40 -4 -36 -2 -37 -1
-22 15 9 10 14 25 11 33 -3 8 -1 17 6 20 15 7 115 -2 133 -12z m-234 -54 c-5
-5 -29 -8 -53 -6 l-44 3 43 14 c23 8 42 19 42 25 0 6 5 3 11 -7 7 -12 8 -22 1
-29z m61 35 c3 -5 1 -19 -5 -32 -8 -22 -10 -23 -24 -10 -8 9 -12 23 -8 32 6
17 29 23 37 10z m4585 -105 c16 -16 15 -25 -3 -32 -16 -6 -75 12 -75 23 0 23
57 30 78 9z m-569 -37 c7 -5 9 -11 4 -14 -6 -4 -19 0 -29 8 -15 11 -16 14 -4
15 8 0 21 -4 29 -9z m-4256 -18 c-7 -2 -19 -2 -25 0 -7 3 -2 5 12 5 14 0 19
-2 13 -5z m-1203 -50 c0 -7 -7 -13 -15 -13 -16 0 -19 9 -9 35 5 13 8 14 15 3
5 -7 9 -19 9 -25z m1450 12 c0 -9 -6 -12 -15 -9 -8 4 -12 10 -9 15 8 14 24 10
24 -6z m-5360 -11 c0 -9 -7 -14 -17 -12 -25 5 -28 28 -4 28 12 0 21 -6 21 -16z
m3760 -12 c0 -4 -18 -6 -40 -4 -22 2 -40 6 -40 8 0 2 18 4 40 4 22 0 40 -3 40
-8z m7520 -33 c0 -10 -60 -12 -84 -3 -29 11 -8 19 38 16 25 -2 46 -8 46 -13z
m-9597 -29 c4 -17 0 -20 -26 -20 l-32 1 24 19 c29 24 28 24 34 0z m77 0 c0
-11 -7 -20 -15 -20 -17 0 -18 2 -9 24 9 23 24 20 24 -4z m-160 -10 c0 -5 -18
-10 -40 -10 -22 0 -40 -4 -40 -10 0 -5 -7 -10 -15 -10 -12 0 -12 3 3 19 18 20
92 29 92 11z m223 -7 c-7 -2 -21 -2 -30 0 -10 3 -4 5 12 5 17 0 24 -2 18 -5z
m6197 -29 c0 -2 -12 -4 -27 -4 -21 0 -24 3 -14 9 13 8 41 5 41 -5z m517 -6
c-3 -8 -6 -5 -6 6 -1 11 2 17 5 13 3 -3 4 -12 1 -19z m-9137 -8 c0 -5 -9 -10
-21 -10 -11 0 -17 5 -14 10 3 6 13 10 21 10 8 0 14 -4 14 -10z m1560 -10 c0
-5 -7 -10 -16 -10 -8 0 -12 5 -9 10 3 6 10 10 16 10 5 0 9 -4 9 -10z m7104
-140 c31 -37 39 -88 34 -221 -4 -117 -17 -156 -62 -178 -40 -19 -93 -4 -120
32 -18 25 -21 45 -24 155 -5 188 18 242 104 242 35 0 47 -5 68 -30z m-8814 -5
c0 -14 -4 -25 -10 -25 -5 0 -10 11 -10 25 0 14 5 25 10 25 6 0 10 -11 10 -25z
m9487 3 c18 -16 23 -32 23 -68 0 -63 -22 -82 -100 -88 l-60 -4 0 91 0 91 57 0
c44 0 62 -5 80 -22z m1841 -76 c26 5 26 28 0 30 -12 0 -3 4 22 7 57 8 58 5 59
-149 1 -101 -2 -121 -21 -160 -19 -36 -30 -47 -59 -54 -47 -12 -89 8 -111 54
-25 48 -27 280 -3 280 18 0 20 17 4 22 -9 3 -8 11 2 28 l13 25 10 -37 c10 -39
26 -52 24 -20 -1 9 2 31 7 47 8 30 8 29 23 -23 11 -37 20 -52 30 -50z m-11054
44 c-3 -9 -16 -16 -28 -16 -21 1 -21 1 3 21 26 22 35 20 25 -5z m-783 -4 c41
-11 88 -26 106 -35 19 -10 33 -13 35 -7 2 6 17 8 35 4 30 -6 31 -8 26 -43 -3
-20 -13 -44 -23 -55 -16 -16 -23 -17 -51 -7 -17 6 -50 11 -71 11 -25 0 -46 7
-60 19 -18 18 -44 27 -158 60 -38 11 -37 38 2 55 45 20 73 19 159 -2z m12847
-80 c2 -51 0 -62 -13 -62 -9 0 -15 9 -15 25 0 22 -4 25 -37 26 -21 1 -46 0
-56 -1 -15 -1 -17 2 -10 15 10 18 102 66 118 61 6 -1 11 -30 13 -64z m325 18
c15 0 6 -20 -10 -21 -17 -1 -17 -2 0 -6 34 -9 19 -33 -20 -33 -21 0 -62 -3
-90 -6 l-53 -7 0 32 c0 19 4 30 10 26 6 -3 10 -2 10 3 0 15 73 28 110 20 19
-4 38 -8 43 -8z m-12713 0 c0 -5 -18 -10 -40 -10 -22 0 -40 5 -40 10 0 6 18
10 40 10 22 0 40 -4 40 -10z m12327 -86 c-3 -3 -12 -4 -19 -1 -8 3 -5 6 6 6
11 1 17 -2 13 -5z m1033 -79 c0 -16 -35 -20 -66 -8 -16 6 -16 7 2 14 33 13 64
10 64 -6z m-320 -40 c0 -34 -1 -35 -40 -35 -23 0 -40 -5 -40 -11 0 -19 97 -5
122 17 l22 19 -20 -35 c-50 -87 -161 -69 -180 29 l-7 34 55 -7 c45 -6 57 -4
61 8 11 28 27 17 27 -19z m223 -157 c-5 -9 -33 -11 -33 -2 0 3 5 15 12 27 11
21 11 21 18 2 4 -11 6 -23 3 -27z m312 32 c-3 -5 -10 -10 -16 -10 -5 0 -9 5
-9 10 0 6 7 10 16 10 8 0 12 -4 9 -10z m-363 -22 c-7 -7 -12 -8 -12 -2 0 14
12 26 19 19 2 -3 -1 -11 -7 -17z m566 -69 c-18 -12 -115 -12 -102 0 10 10 81
19 102 12 11 -3 11 -5 0 -12z m202 -29 c0 -5 -4 -10 -10 -10 -5 0 -10 5 -10
10 0 6 5 10 10 10 6 0 10 -4 10 -10z m98 -116 c12 -4 22 -11 22 -16 0 -14 -53
-5 -58 10 -4 13 2 15 36 6z m-9018 -284 c0 -5 -2 -10 -4 -10 -3 0 -8 5 -11 10
-3 6 -1 10 4 10 6 0 11 -4 11 -10z m590 0 c0 -5 -4 -10 -10 -10 -5 0 -10 5
-10 10 0 6 5 10 10 10 6 0 10 -4 10 -10z m-40 -90 c0 -47 -4 -80 -10 -80 -5 0
-10 22 -10 49 0 48 9 111 16 111 2 0 4 -36 4 -80z m2160 -10 c0 -32 -4 -62
-10 -65 -6 -4 -10 20 -10 65 0 45 4 69 10 65 6 -3 10 -33 10 -65z m-4470 50
c-8 -5 -28 -10 -45 -10 -16 0 -37 5 -45 10 -11 7 3 10 45 10 42 0 56 -3 45
-10z m97 4 c-3 -3 -12 -4 -19 -1 -8 3 -5 6 6 6 11 1 17 -2 13 -5z m-1022 -955
c4 -6 5 -12 2 -15 -7 -7 -37 7 -37 17 0 13 27 11 35 -2z m-2231 -118 c3 -4 3
-11 0 -14 -8 -7 -44 4 -44 14 0 12 37 12 44 0z m-403 -306 c-1 -15 -24 -12
-29 3 -3 9 2 13 12 10 10 -1 17 -7 17 -13z m1769 -65 c0 -5 -7 -10 -15 -10 -8
0 -15 5 -15 10 0 6 7 10 15 10 8 0 15 -4 15 -10z"/>
<path d="M8240 3711 c0 -13 29 -35 37 -28 7 8 -15 37 -28 37 -5 0 -9 -4 -9 -9z"/>
<path d="M11305 3280 c-3 -5 -1 -10 4 -10 6 0 11 5 11 10 0 6 -2 10 -4 10 -3
0 -8 -4 -11 -10z"/>
<path d="M820 3480 c0 -5 5 -10 10 -10 6 0 10 5 10 10 0 6 -4 10 -10 10 -5 0
-10 -4 -10 -10z"/>
<path d="M2568 3403 c7 -3 16 -2 19 1 4 3 -2 6 -13 5 -11 0 -14 -3 -6 -6z"/>
<path d="M3105 3351 c-3 -5 -1 -12 5 -16 5 -3 10 1 10 9 0 18 -6 21 -15 7z"/>
<path d="M3060 3340 c0 -5 5 -10 10 -10 6 0 10 5 10 10 0 6 -4 10 -10 10 -5 0
-10 -4 -10 -10z"/>
<path d="M1360 3304 c0 -31 19 -52 41 -47 21 6 21 7 4 19 -10 7 -15 20 -12 29
5 10 0 15 -13 15 -12 0 -20 -7 -20 -16z"/>
<path d="M2400 3280 c0 -5 5 -10 10 -10 6 0 10 5 10 10 0 6 -4 10 -10 10 -5 0
-10 -4 -10 -10z"/>
<path d="M3920 3080 c0 -22 4 -40 9 -40 6 0 10 8 10 18 -1 9 2 27 6 40 6 16 3
22 -9 22 -12 0 -16 -10 -16 -40z"/>
<path d="M3973 3113 c-10 -4 -10 -9 1 -25 8 -11 12 -27 9 -34 -3 -8 0 -14 6
-14 6 0 11 12 11 28 1 27 1 27 13 4 10 -17 15 -20 25 -10 15 15 16 35 2 43
-15 9 -53 14 -67 8z"/>
<path d="M5042 3100 c0 -14 2 -19 5 -12 2 6 2 18 0 25 -3 6 -5 1 -5 -13z"/>
<path d="M5840 3104 c0 -17 22 -14 28 4 2 7 -3 12 -12 12 -9 0 -16 -7 -16 -16z"/>
<path d="M6495 3110 c-3 -5 -1 -10 4 -10 6 0 11 5 11 10 0 6 -2 10 -4 10 -3 0
-8 -4 -11 -10z"/>
<path d="M6828 3113 c6 -2 18 -2 25 0 6 3 1 5 -13 5 -14 0 -19 -2 -12 -5z"/>
<path d="M7390 3110 c0 -5 5 -10 10 -10 6 0 10 5 10 10 0 6 -4 10 -10 10 -5 0
-10 -4 -10 -10z"/>
<path d="M7440 3110 c0 -5 7 -10 15 -10 8 0 15 5 15 10 0 6 -7 10 -15 10 -8 0
-15 -4 -15 -10z"/>
<path d="M4067 3099 c4 -4 20 -11 36 -14 22 -6 26 -4 21 8 -3 10 -17 15 -35
15 -17 -1 -26 -5 -22 -9z"/>
<path d="M4240 3084 c0 -12 6 -15 23 -10 12 3 30 6 40 6 33 0 9 16 -27 18 -28
2 -36 -1 -36 -14z"/>
<path d="M4205 3079 c-4 -6 -5 -13 -2 -16 7 -7 27 6 27 18 0 12 -17 12 -25 -2z"/>
<path d="M9560 3040 c0 -5 5 -10 10 -10 6 0 10 5 10 10 0 6 -4 10 -10 10 -5 0
-10 -4 -10 -10z"/>
<path d="M9454 3032 c-6 -4 -11 -14 -11 -23 0 -11 8 -14 29 -11 30 5 38 26 12
36 -19 7 -17 7 -30 -2z"/>
<path d="M9360 3005 c0 -9 9 -15 25 -15 16 0 25 6 25 15 0 9 -9 15 -25 15 -16
0 -25 -6 -25 -15z"/>
<path d="M3302 2983 c2 -10 10 -18 18 -18 8 0 16 8 18 18 2 12 -3 17 -18 17
-15 0 -20 -5 -18 -17z"/>
<path d="M8780 2666 l0 -336 75 0 75 0 0 114 0 113 83 7 c169 15 227 72 227
225 0 90 -28 147 -90 181 -42 23 -57 25 -207 28 l-163 4 0 -336z m290 184 c14
-14 20 -33 20 -68 0 -65 -21 -84 -100 -90 l-60 -4 0 91 0 91 60 0 c47 0 64 -4
80 -20z"/>
<path d="M1840 2888 l0 -33 15 29 c18 35 18 36 0 36 -10 0 -15 -10 -15 -32z"/>
<path d="M1890 2912 c0 -15 22 -30 36 -25 24 9 16 33 -11 33 -14 0 -25 -4 -25
-8z"/>
<path d="M2080 2864 c0 -8 5 -12 10 -9 6 4 8 11 5 16 -9 14 -15 11 -15 -7z"/>
<path d="M11276 2855 c8 -37 14 -45 14 -19 0 10 -5 26 -10 34 -8 11 -9 7 -4
-15z"/>
<path d="M2160 2859 c0 -5 5 -7 10 -4 6 3 10 8 10 11 0 2 -4 4 -10 4 -5 0 -10
-5 -10 -11z"/>
<path d="M11352 2840 c0 -14 2 -19 5 -12 2 6 2 18 0 25 -3 6 -5 1 -5 -13z"/>
<path d="M11840 2784 c0 -9 5 -14 12 -12 18 6 21 28 4 28 -9 0 -16 -7 -16 -16z"/>
<path d="M890 2710 c0 -5 5 -10 10 -10 6 0 10 5 10 10 0 6 -4 10 -10 10 -5 0
-10 -4 -10 -10z"/>
<path d="M1280 2621 c0 -15 7 -19 30 -19 34 1 39 13 11 28 -29 15 -41 12 -41
-9z"/>
<path d="M304 2595 c-7 -17 -44 -21 -44 -5 0 6 -4 10 -10 10 -18 0 -10 -29 10
-35 30 -9 60 4 60 26 0 23 -8 25 -16 4z"/>
<path d="M400 2601 c0 -5 6 -11 13 -13 17 -7 38 2 31 13 -7 12 -44 12 -44 0z"/>
<path d="M13111 2594 c0 -11 3 -14 6 -6 3 7 2 16 -1 19 -3 4 -6 -2 -5 -13z"/>
<path d="M13150 2582 c0 -10 -5 -23 -12 -30 -9 -9 -8 -12 5 -12 12 0 17 8 17
30 0 17 -2 30 -5 30 -3 0 -5 -8 -5 -18z"/>
<path d="M623 2573 c-21 -8 -14 -33 11 -43 18 -7 23 -14 19 -29 -5 -18 -1 -21
31 -21 20 0 36 -4 36 -10 0 -5 12 -10 28 -9 26 1 25 1 -11 18 -51 24 -67 41
-41 42 10 1 28 1 39 0 19 -2 19 -1 2 13 -11 8 -25 12 -33 9 -8 -3 -22 1 -32 9
-25 21 -35 26 -49 21z"/>
<path d="M950 2575 c0 -5 5 -17 10 -25 5 -8 10 -10 10 -5 0 6 -5 17 -10 25 -5
8 -10 11 -10 5z"/>
<path d="M13052 2558 c-6 -6 -12 -18 -12 -26 0 -7 -4 -11 -10 -7 -5 3 -7 12
-3 20 8 22 -21 18 -43 -6 -18 -20 -18 -21 0 -35 25 -18 76 -13 89 8 15 23 -3
64 -21 46z"/>
<path d="M1005 2540 c3 -5 8 -10 11 -10 2 0 4 5 4 10 0 6 -5 10 -11 10 -5 0
-7 -4 -4 -10z"/>
<path d="M1133 2543 c-25 -10 -12 -23 21 -23 41 0 56 15 23 24 -25 6 -27 6
-44 -1z"/>
<path d="M1303 2532 c-27 -4 -30 -17 -5 -19 9 -1 31 -4 47 -8 69 -14 123 -14
135 -1 7 9 7 16 1 20 -12 8 -146 14 -178 8z"/>
<path d="M1500 2516 c0 -24 17 -28 23 -6 3 13 0 20 -9 20 -8 0 -14 -6 -14 -14z"/>
<path d="M1760 2516 c0 -9 5 -16 10 -16 6 0 10 4 10 9 0 6 -4 13 -10 16 -5 3
-10 -1 -10 -9z"/>
<path d="M12578 2513 c-59 -24 -49 -43 22 -43 57 0 60 1 60 24 0 13 -7 27 -16
30 -20 8 -21 7 -66 -11z"/>
<path d="M13512 2508 c-20 -20 -14 -28 19 -28 24 0 30 4 27 17 -4 22 -29 28
-46 11z"/>
<path d="M0 2456 c0 -27 25 -46 59 -46 42 0 14 49 -36 64 -20 6 -23 4 -23 -18z"/>
<path d="M385 2470 c3 -5 11 -10 16 -10 6 0 7 5 4 10 -3 6 -11 10 -16 10 -6 0
-7 -4 -4 -10z"/>
<path d="M1225 2460 c3 -5 10 -10 16 -10 5 0 9 5 9 10 0 6 -7 10 -16 10 -8 0
-12 -4 -9 -10z"/>
<path d="M1280 2440 c0 -5 12 -10 26 -10 14 0 23 4 19 10 -3 6 -15 10 -26 10
-10 0 -19 -4 -19 -10z"/>
<path d="M13151 2441 c-10 -7 -10 -10 -1 -16 6 -4 16 -3 22 3 13 13 -4 23 -21
13z"/>
<path d="M14214 2424 c-10 -8 -13 -12 -5 -8 10 5 11 1 6 -15 -4 -14 -1 -23 9
-27 9 -3 16 -12 16 -20 0 -8 5 -14 10 -14 6 0 10 7 10 15 0 8 -4 15 -10 15 -5
0 -10 12 -10 27 0 24 1 25 18 11 22 -19 52 -30 52 -18 0 5 -5 12 -11 15 -6 4
-8 13 -5 21 8 20 -55 19 -80 -2z"/>
<path d="M13457 2417 c-3 -8 1 -14 8 -14 7 0 11 6 8 14 -3 7 -6 13 -8 13 -2 0
-5 -6 -8 -13z"/>
<path d="M193 2405 c-17 -19 -16 -28 1 -22 8 3 20 -1 26 -8 7 -8 16 -13 20
-10 5 3 11 -4 15 -15 3 -11 11 -20 16 -20 13 0 11 24 -3 39 -11 10 -9 14 6 23
15 8 16 12 5 19 -21 13 -73 10 -86 -6z"/>
<path d="M317 2401 c-17 -6 -17 -8 -3 -20 15 -13 96 -23 96 -12 0 9 -20 37
-20 29 0 -4 -12 -3 -27 1 -16 5 -36 5 -46 2z"/>
<path d="M0 2330 c0 -28 2 -30 40 -30 51 0 53 21 6 44 -45 21 -46 21 -46 -14z"/>
<path d="M13682 2318 c7 -20 48 -23 48 -4 0 11 -9 16 -26 16 -16 0 -24 -5 -22
-12z"/>
<path d="M14334 2296 c-7 -28 2 -49 17 -41 12 8 12 52 -1 60 -5 3 -12 -5 -16
-19z"/>
<path d="M696 2291 c-7 -10 16 -21 47 -21 13 0 17 4 12 9 -16 15 -53 22 -59
12z"/>
<path d="M260 2281 c0 -13 26 -21 66 -21 43 0 44 15 3 24 -44 9 -69 8 -69 -3z"/>
<path d="M580 2280 c0 -5 7 -10 15 -10 8 0 15 5 15 10 0 6 -7 10 -15 10 -8 0
-15 -4 -15 -10z"/>
<path d="M840 2240 c0 -5 16 -10 35 -10 19 0 35 5 35 10 0 6 -16 10 -35 10
-19 0 -35 -4 -35 -10z"/>
<path d="M14640 2220 c0 -35 14 -39 32 -10 13 21 48 28 48 10 0 -15 20 -12 38
7 16 15 15 16 -11 9 -16 -4 -27 -2 -27 4 0 5 -18 10 -40 10 -38 0 -40 -2 -40
-30z"/>
<path d="M13920 2200 c0 -5 9 -10 20 -10 11 0 20 5 20 10 0 6 -9 10 -20 10
-11 0 -20 -4 -20 -10z"/>
<path d="M14720 2175 c0 -9 43 -55 52 -55 4 0 8 7 8 15 0 8 -5 15 -11 15 -5 0
-8 4 -5 9 3 5 -1 12 -10 15 -19 7 -34 8 -34 1z"/>
<path d="M14551 2144 c0 -11 3 -14 6 -6 3 7 2 16 -1 19 -3 4 -6 -2 -5 -13z"/>
<path d="M14590 2150 c0 -5 5 -10 10 -10 6 0 10 5 10 10 0 6 -4 10 -10 10 -5
0 -10 -4 -10 -10z"/>
<path d="M14653 2145 c-7 -8 -13 -20 -13 -27 1 -8 5 -7 14 5 7 9 18 17 25 17
6 0 11 5 11 10 0 15 -23 12 -37 -5z"/>
<path d="M178 2133 c7 -3 16 -2 19 1 4 3 -2 6 -13 5 -11 0 -14 -3 -6 -6z"/>
<path d="M8390 1989 c-20 -8 -22 -12 -10 -19 9 -6 19 -5 24 0 6 6 26 10 46 10
26 0 31 3 20 10 -19 12 -48 12 -80 -1z"/>
</g>
</svg>
